Nanny McPhee And The Big Bang BRRip H264.mp4

File Size
Format : MPEG-4
Format profile : Base Media
Codec ID : isom
File size : 1.97 GiB
Duration : 1h 49mn
Overall bit rate : 2 578 Kbps

Video
ID : 1
Format : AVC
Format/Info : Advanced Video Codec
Format profile : High@L4.1
Format settings, CABAC : Yes
Format settings, ReFrames : 3 frames
Codec ID : avc1
Codec ID/Info : Advanced Video Coding
Duration : 1h 49mn
Bit rate mode : Variable
Bit rate : 1 999 Kbps
Maximum bit rate : 11.3 Mbps
Width : 1 280 pixels
Height : 528 pixels
Display aspect ratio : 2.40:1
Frame rate mode : Constant
Frame rate : 23.976 fps
Resolution : 24 bits
Colorimetry : 4:2:0
Scan type : Progressive
Bits/(Pixel*Frame) : 0.123
Stream size : 1.52 GiB (77%)

Audio #1
ID : 2
Format : AAC
Format/Info : Advanced Audio Codec
Format version : Version 4
Format profile : LC
Format settings, SBR : No
Codec ID : 40
Duration : 1h 49mn
Bit rate mode : Variable
Bit rate : 128 Kbps
Maximum bit rate : 136 Kbps
Channel(s) : 2 channels
Channel positions : L R
Sampling rate : 48.0 KHz
Resolution : 16 bits
Stream size : 100 MiB (5%)

Audio #2
ID : 3
Format : AAC
Format/Info : Advanced Audio Codec
Format version : Version 4
Format profile : LC
Format settings, SBR : No
Codec ID : 40
Duration : 1h 49mn
Bit rate mode : Variable
Bit rate : 448 Kbps
Maximum bit rate : 458 Kbps
Channel(s) : 6 channels
Channel positions : Front: L C R, Rear: L R, LFE
Sampling rate : 48.0 KHz
Resolution : 16 bits
Stream size : 350 MiB (17%)

English SRT : ----

Language : English

 
http://www.imdb.com/title/tt1415283/

Release Date: 20 August 2010 (USA) 

Genre: Comedy | Family | Fantasy 

Plot: Nanny McPhee arrives to help a harried young mother who is trying to run the family farm while her husband is away at war, though she uses her magic to teach the woman's children and their two spoiled cousins five new lessons.

Cast: 
Ralph Fiennes ... Lord Gray
Ewan McGregor ... Mr. Green
Maggie Gyllenhaal ... Mrs. Green
Maggie Smith ... Mrs. Docherty
Emma Thompson ... Nanny McPhee
Rhys Ifans ... Uncle Phil
Asa Butterfield ... Norman Green
Daniel Mays ... Blenkinsop
Bill Bailey ... Farmer MacReadie
Nonso Anozie ... Sergeant Jeffreys
Sinead Matthews ... Miss Topsey
Katy Brand ... Miss Turvey
Sam Kelly ... Mr. Spolding
Eros Vlahos ... Cyril Gray
Lil Woods ... Megsie Green
Oscar Steer ... Vincent Green
Rosie Taylor-Ritson ... Celia Gray


